<svg width="59" height="59" viewBox="0 0 59 59" fill="none" xmlns="http://www.w3.org/2000/svg">
<circle cx="29.5" cy="29.5" r="29.5" fill="#4D55A6"/>
<path d="M20 36.5H22.5V41.6012L28.8762 36.5H35C36.3787 36.5 37.5 35.3787 37.5 34V24C37.5 22.6212 36.3787 21.5 35 21.5H20C18.6212 21.5 17.5 22.6212 17.5 24V34C17.5 35.3787 18.6212 36.5 20 36.5Z" fill="white"/>
<path d="M40 16.5H25C23.6212 16.5 22.5 17.6212 22.5 19H37.5C38.8787 19 40 20.1212 40 21.5V31.5C41.3787 31.5 42.5 30.3787 42.5 29V19C42.5 17.6212 41.3787 16.5 40 16.5Z" fill="white"/>
</svg>
