<svg  viewBox="0 0 18 19" fill="none" xmlns="http://www.w3.org/2000/svg">
<path d="M17.4377 13.1103C16.8408 14.7122 15.8 16.1109 14.4371 17.1428C13.0743 18.1747 11.4457 18.7971 9.74198 18.9372C8.03828 19.0774 6.3299 18.7294 4.81675 17.934C3.30361 17.1386 2.04828 15.9287 1.19765 14.4459C0.347021 12.9631 -0.0637198 11.2688 0.013487 9.56105C0.0906938 7.85334 0.652655 6.20293 1.63362 4.80294C2.61458 3.40296 3.97396 2.3113 5.55271 1.6557C7.13145 1.00011 8.86426 0.807693 10.5484 1.10097C9.2339 2.14173 8.33664 3.61971 8.01978 5.2661C7.70292 6.9125 7.98751 8.61793 8.82179 10.0722C9.65607 11.5265 10.9846 12.6331 12.5658 13.1906C14.147 13.7482 15.8758 13.7197 17.4377 13.1103Z" fill="#290A80"/>
</svg>
