<svg width="14" height="14" viewBox="0 0 14 14" fill="none" xmlns="http://www.w3.org/2000/svg">
<path d="M6.99995 4.91724C5.85308 4.91724 4.91714 5.85317 4.91714 7.00005C4.91714 8.14692 5.85308 9.08286 6.99995 9.08286C8.14683 9.08286 9.08276 8.14692 9.08276 7.00005C9.08276 5.85317 8.14683 4.91724 6.99995 4.91724ZM13.2468 7.00005C13.2468 6.13755 13.2546 5.28286 13.2062 4.42192C13.1578 3.42192 12.9296 2.53442 12.1984 1.80317C11.4656 1.07036 10.5796 0.8438 9.57964 0.795362C8.71714 0.746925 7.86245 0.754737 7.00151 0.754737C6.13901 0.754737 5.28433 0.746925 4.42339 0.795362C3.42339 0.8438 2.53589 1.07192 1.80464 1.80317C1.07183 2.53599 0.845265 3.42192 0.796827 4.42192C0.74839 5.28442 0.756202 6.13911 0.756202 7.00005C0.756202 7.86099 0.74839 8.71724 0.796827 9.57817C0.845265 10.5782 1.07339 11.4657 1.80464 12.1969C2.53745 12.9297 3.42339 13.1563 4.42339 13.2047C5.28589 13.2532 6.14058 13.2454 7.00151 13.2454C7.86401 13.2454 8.7187 13.2532 9.57964 13.2047C10.5796 13.1563 11.4671 12.9282 12.1984 12.1969C12.9312 11.4641 13.1578 10.5782 13.2062 9.57817C13.2562 8.71724 13.2468 7.86255 13.2468 7.00005ZM6.99995 10.2047C5.22651 10.2047 3.79526 8.77349 3.79526 7.00005C3.79526 5.22661 5.22651 3.79536 6.99995 3.79536C8.77339 3.79536 10.2046 5.22661 10.2046 7.00005C10.2046 8.77349 8.77339 10.2047 6.99995 10.2047ZM10.3359 4.41255C9.92183 4.41255 9.58745 4.07817 9.58745 3.66411C9.58745 3.25005 9.92183 2.91567 10.3359 2.91567C10.75 2.91567 11.0843 3.25005 11.0843 3.66411C11.0845 3.76243 11.0652 3.85981 11.0276 3.95067C10.99 4.04153 10.9349 4.12409 10.8654 4.19361C10.7959 4.26314 10.7133 4.31826 10.6225 4.35583C10.5316 4.3934 10.4342 4.41267 10.3359 4.41255Z" fill="#FFC30B"/>
</svg>
