<svg width="13" height="13" viewBox="0 0 13 13" fill="none" xmlns="http://www.w3.org/2000/svg">
<path d="M12 0H0.5C0.223437 0 0 0.223437 0 0.5V12C0 12.2766 0.223437 12.5 0.5 12.5H12C12.2766 12.5 12.5 12.2766 12.5 12V0.5C12.5 0.223437 12.2766 0 12 0ZM3.70781 10.6516H1.85313V4.68594H3.70781V10.6516ZM2.78125 3.87031C2.56863 3.87031 2.36079 3.80726 2.18401 3.68914C2.00723 3.57102 1.86944 3.40313 1.78808 3.2067C1.70672 3.01027 1.68543 2.79412 1.72691 2.58559C1.76838 2.37706 1.87077 2.18551 2.02111 2.03517C2.17145 1.88483 2.363 1.78245 2.57153 1.74097C2.78006 1.69949 2.9962 1.72078 3.19263 1.80214C3.38907 1.88351 3.55696 2.02129 3.67508 2.19807C3.7932 2.37486 3.85625 2.5827 3.85625 2.79531C3.85469 3.38906 3.37344 3.87031 2.78125 3.87031ZM10.6516 10.6516H8.79844V7.75C8.79844 7.05781 8.78594 6.16875 7.83438 6.16875C6.87031 6.16875 6.72188 6.92188 6.72188 7.7V10.6516H4.87031V4.68594H6.64844V5.50156H6.67344C6.92031 5.03281 7.525 4.5375 8.42813 4.5375C10.3063 4.5375 10.6516 5.77344 10.6516 7.37969V10.6516Z" fill="#FFC30B"/>
</svg>
