<svg  viewBox="0 0 16 16" fill="none" xmlns="http://www.w3.org/2000/svg">
<path d="M3.8 7.5C4.46 7.5 5.06 7.34 5.6 7.02C6.14667 6.69333 6.58333 6.26 6.91 5.72C7.23667 5.17333 7.4 4.56667 7.4 3.9C7.4 3.23333 7.23667 2.63 6.91 2.09C6.58333 1.54333 6.14667 1.11 5.6 0.789999C5.06 0.463333 4.46 0.3 3.8 0.3C3.16 0.3 2.56667 0.463333 2.02 0.789999C1.47333 1.11667 1.03333 1.55333 0.7 2.1C0.366667 2.64667 0.2 3.24667 0.2 3.9C0.2 4.56667 0.363333 5.17333 0.69 5.72C1.01667 6.26 1.45 6.69333 1.99 7.02C2.53667 7.34 3.14 7.5 3.8 7.5ZM1.8 15L15.23 1.59L14.23 0.599999L0.8 14L1.8 15ZM3.8 6.17C3.39333 6.17 3.01667 6.06667 2.67 5.86C2.32333 5.65333 2.04667 5.37667 1.84 5.03C1.63333 4.68333 1.53 4.30667 1.53 3.9C1.53 3.48667 1.63333 3.11 1.84 2.77C2.04667 2.42333 2.32333 2.14667 2.67 1.94C3.01667 1.73333 3.39333 1.63 3.8 1.63C4.21333 1.63 4.59 1.73333 4.93 1.94C5.27667 2.14667 5.55333 2.42333 5.76 2.77C5.96667 3.11 6.07 3.48667 6.07 3.9C6.07 4.30667 5.96667 4.68333 5.76 5.03C5.55333 5.37667 5.27667 5.65333 4.93 5.86C4.59 6.06667 4.21333 6.17 3.8 6.17ZM12.23 15.3C12.89 15.3 13.49 15.14 14.03 14.82C14.5767 14.4933 15.0133 14.06 15.34 13.52C15.6667 12.9733 15.83 12.3667 15.83 11.7C15.83 11.0333 15.6667 10.43 15.34 9.89C15.0133 9.34333 14.5767 8.91 14.03 8.59C13.49 8.26333 12.89 8.1 12.23 8.1C11.59 8.1 10.9967 8.26333 10.45 8.59C9.90333 8.91667 9.46333 9.35333 9.13 9.9C8.79667 10.4467 8.63 11.0467 8.63 11.7C8.63 12.3667 8.79 12.9733 9.11 13.52C9.43667 14.06 9.87333 14.4933 10.42 14.82C10.9667 15.14 11.57 15.3 12.23 15.3ZM12.23 13.97C11.8233 13.97 11.4467 13.8667 11.1 13.66C10.7533 13.4533 10.4767 13.1767 10.27 12.83C10.0633 12.4833 9.96 12.1067 9.96 11.7C9.96 11.2867 10.0633 10.91 10.27 10.57C10.4767 10.2233 10.7533 9.94667 11.1 9.74C11.4467 9.53333 11.8233 9.43 12.23 9.43C12.6433 9.43 13.02 9.53333 13.36 9.74C13.7067 9.94667 13.9833 10.2233 14.19 10.57C14.3967 10.91 14.5 11.2867 14.5 11.7C14.5 12.1067 14.3967 12.4833 14.19 12.83C13.9833 13.1767 13.7067 13.4533 13.36 13.66C13.02 13.8667 12.6433 13.97 12.23 13.97Z" fill="#939292"/>
</svg>
