<svg width="15" height="12" viewBox="0 0 15 12" fill="none" xmlns="http://www.w3.org/2000/svg">
<path d="M10.6769 7.75H10.0575L9.83805 7.58125C10.6063 6.86875 11.0688 5.94375 11.0688 4.9375C11.0688 2.69375 8.78757 0.875 5.97323 0.875C3.15889 0.875 0.877625 2.69375 0.877625 4.9375C0.877625 7.18125 3.15889 9 5.97323 9C7.23537 9 8.3956 8.63125 9.28929 8.01875L9.50095 8.19375V8.6875L13.4206 11.8062L14.5887 10.875L10.6769 7.75ZM5.97323 7.75C4.02122 7.75 2.4455 6.49375 2.4455 4.9375C2.4455 3.38125 4.02122 2.125 5.97323 2.125C7.92523 2.125 9.50095 3.38125 9.50095 4.9375C9.50095 6.49375 7.92523 7.75 5.97323 7.75Z" fill="#8F8F8F"/>
</svg>
