<svg width="16" height="12" viewBox="0 0 16 12" fill="none" xmlns="http://www.w3.org/2000/svg">
<path d="M15.8805 2.17717C15.2965 2.38221 14.661 2.52978 14.0064 2.58725C14.686 2.25862 15.1949 1.73943 15.4377 1.12709C14.8 1.43588 14.1013 1.65241 13.3727 1.76708C13.0682 1.50212 12.6999 1.29103 12.2908 1.14699C11.8817 1.00294 11.4405 0.929015 10.9948 0.929816C9.19125 0.929816 7.7408 2.11969 7.7408 3.57985C7.7408 3.7849 7.77134 3.98994 7.82096 4.18722C5.12046 4.07227 2.71195 3.0222 1.11074 1.41447C0.818978 1.82007 0.666086 2.2819 0.667969 2.75191C0.667969 3.6715 1.24242 4.48236 2.11842 4.95924C1.60218 4.94269 1.09803 4.8272 0.646976 4.62216V4.65478C0.646976 5.94252 1.76535 7.00968 3.25587 7.25511C2.97601 7.31428 2.68811 7.34455 2.39896 7.3452C2.18712 7.3452 1.98673 7.32812 1.78443 7.30482C2.19666 8.35489 3.3971 9.11759 4.82655 9.14244C3.70818 9.85544 2.30736 10.2748 0.786295 10.2748C0.513382 10.2748 0.261462 10.2671 0 10.2422C1.44281 10.9956 3.15472 11.4305 4.99831 11.4305C10.9833 11.4305 14.2583 7.39491 14.2583 3.89208C14.2583 3.77713 14.2583 3.66218 14.2487 3.54723C14.8823 3.16976 15.4377 2.7022 15.8805 2.17717Z" fill="#FFC30B"/>
</svg>
